<?xml version="1.0" encoding="UTF-8"?>
<svg xmlns="http://www.w3.org/2000/svg" version="1.1" viewBox="0 0 1158.4 351.6">
  <!-- Generator: Adobe Illustrator 30.5.1, SVG Export Plug-In . SVG Version: 2.1.4 Build 3)  -->
  <defs>
    <style>
      .st0 {
        fill: #5dbd85;
      }

      .st0, .st1, .st2, .st3, .st4, .st5, .st6, .st7, .st8 {
        fill-opacity: 1;
      }

      .st1 {
        fill: #58b880;
      }

      .st2 {
        fill: #64c48c;
      }

      .st3 {
        fill: #6ccb94;
      }

      .st4 {
        fill: #6ecc95;
      }

      .st5 {
        fill: #5ebe86;
      }

      .st9 {
        font-size: 69.7px;
      }

      .st9, .st10 {
        font-family: Lato-Bold, Lato;
        font-weight: 700;
      }

      .st9, .st11 {
        fill: #555;
      }

      .st6 {
        fill: #76d29c;
      }

      .st7 {
        fill: #5fbf87;
      }

      .st8 {
        fill: #74d09b;
      }

      .st10 {
        fill: #9c9c9c;
        font-size: 46.9px;
      }
    </style>
  </defs>
  <g id="Ebene_1">
    <path class="st3" d="M20,0L0,97.5l57.4,54.1-37.3,66.4,75.8,133.5h82.9l76.1-133.5-37.6-66.4,55.4-54.1L254.6,0l-78,103.9h-78.1L20,0Z"/>
    <path class="st2" d="M57.4,151.6l80,66.4-38.9-114.2-41.2,47.8Z"/>
    <path class="st4" d="M255,218.1l-37.6-66.4-80,66.4h117.6Z"/>
    <path class="st5" d="M95.9,351.6h82.9l-41.5-133.5-41.5,133.5Z"/>
    <path class="st6" d="M217.4,151.6l-80,66.4,39.2-114.2,40.8,47.8Z"/>
    <path class="st0" d="M20.1,218.1l37.3-66.4,80,66.4H20.1Z"/>
    <path class="st8" d="M254.6,0l18.2,97.5-55.4,54.1-40.8-47.8L254.6,0Z"/>
    <path class="st2" d="M137.4,218.1l41.5,133.5,76.1-133.5h-117.6Z"/>
    <path class="st1" d="M137.4,218.1l-41.5,133.5L20.1,218.1h117.3Z"/>
    <path class="st7" d="M20,0L0,97.5l57.4,54.1,41.2-47.8L20,0Z"/>
    <path class="st4" d="M137.4,218.1l39.2-114.2h-78.1l38.9,114.2Z"/>
    <path class="st11" d="M331.3,300.2v-151.5h12.7c3,0,4.8,1.4,5.6,4.2l1.8,13c4.8-5.7,10.2-10.4,16.4-13.9,6.3-3.6,13.4-5.4,21.5-5.4s12.3,1.3,17.5,3.8c5.3,2.5,9.8,6.1,13.5,11.1,3.8,4.9,6.7,11,8.7,18.2,2,7.2,3,15.4,3,24.8,0,8.4-1.1,16.2-3.4,23.5-2.2,7.1-5.5,13.4-9.7,18.7-4.2,5.3-9.4,9.5-15.4,12.5-6,3-12.9,4.5-20.4,4.5s-12.8-1.1-17.7-3.4c-4.8-2.2-9.2-5.4-13-9.6v49.5h-21.2M382.3,163.8c-6.4,0-12,1.5-16.8,4.4-4.7,2.8-9,6.9-13.1,12.2v54.2c3.6,4.7,7.4,8,11.6,9.9,4.2,1.9,9,2.8,14.2,2.8,10.2,0,18.1-3.6,23.6-10.9,5.5-7.3,8.3-17.9,8.3-31.7s-.6-13.4-1.9-18.5c-1.3-5.1-3.1-9.3-5.5-12.6-2.4-3.4-5.3-5.8-8.7-7.3-3.4-1.6-7.3-2.3-11.7-2.3M497.6,146.9c8.3,0,15.9,1.4,22.6,4.1,6.7,2.7,12.4,6.6,17.1,11.6,4.7,5.1,8.3,11.2,10.8,18.4,2.5,7.1,3.8,15.2,3.8,24.1s-1.3,17-3.8,24.2c-2.5,7.2-6.1,13.4-10.8,18.4-4.7,5.1-10.4,9-17.1,11.7-6.7,2.7-14.2,4-22.6,4s-15.9-1.3-22.7-4c-6.7-2.8-12.4-6.7-17.2-11.7-4.7-5.1-8.3-11.2-10.8-18.4-2.5-7.2-3.8-15.3-3.8-24.2s1.3-17,3.8-24.1c2.5-7.2,6.1-13.4,10.8-18.4,4.8-5.1,10.5-8.9,17.2-11.6,6.8-2.8,14.3-4.1,22.7-4.1M497.6,247.2c10.9,0,19-3.6,24.4-10.9,5.4-7.3,8-17.6,8-30.8s-2.7-23.5-8-30.8c-5.4-7.4-13.5-11.1-24.4-11.1s-19.3,3.7-24.7,11.1c-5.4,7.4-8,17.7-8,30.8s2.7,23.5,8,30.8c5.4,7.3,13.7,10.9,24.7,10.9M586.9,148.7v72.3c0,8.2,1.9,14.6,5.7,19.2,3.8,4.5,9.6,6.8,17.3,6.8s11-1.3,15.9-3.9c5-2.7,9.6-6.4,13.9-11.1v-83.3h21.2v113.4h-12.7c-3,0-4.8-1.4-5.6-4.2l-1.7-11.7c-4.9,5.3-10.4,9.6-16.4,12.8-6,3.3-12.9,4.9-20.8,4.9s-11.8-1-16.5-3.1c-4.7-2.1-8.6-5-11.8-8.7-3.1-3.8-5.5-8.3-7.2-13.5-1.6-5.3-2.5-11.1-2.5-17.5v-72.3h21.2M766.4,169.6c-.6.8-1.2,1.5-1.9,1.9-.6.4-1.5.7-2.6.7s-2.5-.4-3.8-1.3c-1.3-1-3-2-4.9-3-1.9-1.1-4.3-2.1-7.2-3-2.8-1-6.3-1.5-10.4-1.5s-10.2,1-14.4,2.9c-4.2,1.9-7.7,4.7-10.5,8.4-2.8,3.6-4.8,8-6.3,13.2-1.4,5.1-2.1,10.9-2.1,17.4s.7,12.7,2.2,17.9c1.6,5.2,3.7,9.6,6.5,13.2,2.8,3.6,6.2,6.3,10.2,8.2,4,1.9,8.5,2.8,13.4,2.8s8.7-.6,11.7-1.7c3.1-1.2,5.6-2.5,7.6-3.8,2-1.3,3.7-2.6,5-3.7,1.4-1.2,2.8-1.8,4.2-1.8s3.1.7,4,2l6,7.7c-2.6,3.1-5.5,5.8-8.7,8-3.2,2.2-6.6,4.1-10.3,5.5-3.7,1.4-7.4,2.5-11.4,3.1-3.9.7-8,1-12.1,1-7.1,0-13.7-1.3-19.8-3.9-6.1-2.6-11.4-6.4-16-11.4-4.5-5-8-11.1-10.6-18.3-2.5-7.3-3.8-15.6-3.8-24.8s1.2-16.2,3.5-23.2c2.4-7.1,5.8-13.3,10.4-18.5s10.1-9.3,16.8-12.2c6.7-2.9,14.4-4.4,23-4.4s15.2,1.3,21.3,3.9c6.2,2.6,11.6,6.3,16.3,10.9l-5.6,7.8M793.1,262.1V97.3h21.2v65.9c4.8-4.9,10.1-8.9,15.9-11.8,5.8-3,12.5-4.5,20.1-4.5s11.6,1,16.3,3.1c4.8,2.1,8.8,5,12,8.8,3.2,3.7,5.6,8.2,7.3,13.5,1.6,5.2,2.5,11,2.5,17.4v72.3h-21.2v-72.3c0-8.2-1.9-14.6-5.7-19.1-3.8-4.6-9.6-6.9-17.3-6.9s-11.1,1.3-16,4-9.5,6.4-13.7,11.1v83.2h-21.2M994.2,262.1c-3,0-4.8-1.4-5.6-4.2l-1.9-13.3c-2.4,2.9-5,5.6-7.7,7.9-2.8,2.3-5.7,4.3-8.8,6-3.1,1.6-6.4,2.9-9.9,3.8-3.5.9-7.3,1.3-11.3,1.3-6.5,0-12.4-1.2-17.7-3.7-5.2-2.5-9.7-6.3-13.5-11.2-3.7-4.9-6.6-10.9-8.6-18.1-2-7.2-3-15.5-3-24.9s1.1-16.2,3.3-23.4c2.2-7.2,5.5-13.5,9.7-18.8,4.2-5.3,9.4-9.4,15.4-12.4,6-3.1,12.8-4.6,20.4-4.6s12.7,1.2,17.5,3.5c4.9,2.2,9.3,5.4,13.1,9.5v-62.3h21.2v164.8h-12.7M955.9,246.6c6.3,0,11.9-1.4,16.6-4.2,4.8-2.9,9.2-7,13.2-12.3v-54.1c-3.6-4.8-7.5-8.1-11.7-9.9-4.2-1.9-8.9-2.9-14.1-2.9-10.2,0-18.1,3.6-23.6,10.9-5.5,7.3-8.3,17.9-8.3,31.7s.6,13.4,1.9,18.5c1.3,5.1,3.1,9.4,5.5,12.7,2.4,3.3,5.3,5.7,8.7,7.3,3.4,1.5,7.3,2.2,11.7,2.2M1024,262.1V97.3h21.2v67.4c4.7-5.4,10-9.8,16-13,6-3.2,12.9-4.8,20.6-4.8s12.6,1.3,17.9,3.9c5.4,2.5,9.9,6.2,13.6,10.9,3.7,4.8,6.6,10.6,8.5,17.5,2,6.9,3,14.6,3,23.1,0,9.2-1.2,17.5-3.5,25-2.2,7.5-5.5,14-9.7,19.3-4.2,5.4-9.3,9.5-15.3,12.5-6,2.9-12.7,4.4-20.2,4.4s-13.7-1.4-18.8-4.1c-5-2.8-9.4-6.7-13.2-11.6l-1,9.7c-.7,3-2.5,4.5-5.4,4.5h-13.7M1074.7,163.8c-6.3,0-11.8,1.4-16.5,4.4-4.6,2.8-8.9,6.9-13,12.2v54.2c3.6,4.7,7.5,8,11.7,9.9,4.2,1.9,8.9,2.8,13.9,2.8,10.4,0,18.3-3.6,23.8-10.9,5.5-7.3,8.3-18.3,8.3-33.1s-2.5-23.5-7.4-29.8c-4.8-6.4-11.8-9.6-20.8-9.6"/>
  </g>
  <g id="Ebene_2">
    <text class="st9" transform="translate(331.3 116.4)"><tspan x="0" y="0">apache</tspan></text>
    <text class="st10" transform="translate(1122.9019 181.3554)"><tspan x="0" y="0">™</tspan></text>
  </g>
</svg>