<?xml version="1.0" encoding="UTF-8"?>
<svg id="Layer_1" xmlns="http://www.w3.org/2000/svg" version="1.1" viewBox="0 0 473.3 110.2">
  <!-- Generator: Adobe Illustrator 30.5.1, SVG Export Plug-In . SVG Version: 2.1.4 Build 3)  -->
  <defs>
    <style>
      .st0 {
        fill-rule: evenodd;
      }
    </style>
  </defs>
  <polygon class="st0" points="445.8 13.3 467 13.3 467 15.3 448 15.3 448 27.1 465.1 27.1 465.1 29.1 448 29.1 448 41.1 467.2 41.1 467.2 43.1 445.8 43.1 445.8 13.3"/>
  <polygon class="st0" points="377.6 13.3 379.9 13.3 379.9 27.1 398.9 27.1 398.9 13.3 401.2 13.3 401.2 43.1 398.9 43.1 398.9 29.1 379.9 29.1 379.9 43.1 377.6 43.1 377.6 13.3"/>
  <path class="st0" d="M323.9,43.6c-2.1,0-4.1-.4-5.9-1.2-1.8-.8-3.4-1.9-4.7-3.3-1.3-1.4-2.4-3-3.1-4.9-.7-1.9-1.1-3.9-1.1-6h0c0-2.2.4-4.2,1.1-6,.8-1.9,1.8-3.5,3.1-4.9,1.3-1.4,2.9-2.5,4.7-3.3,1.8-.8,3.8-1.2,6-1.2s2.5.1,3.6.3c1.1.2,2.1.6,3,1,.9.4,1.8.9,2.6,1.5.8.6,1.6,1.2,2.4,1.9l-1.6,1.6c-.7-.6-1.3-1.2-2-1.7s-1.5-1-2.3-1.4c-.8-.4-1.7-.7-2.6-.9-1-.2-2-.3-3.1-.3-1.8,0-3.5.3-5,1s-2.9,1.6-4,2.8c-1.1,1.2-2,2.6-2.6,4.2-.6,1.6-1,3.4-1,5.2h0c0,2,.3,3.7,1,5.3s1.5,3.1,2.7,4.3,2.4,2.2,4,2.9c1.5.7,3.2,1,5,1s4-.4,5.6-1.2c1.6-.8,3.1-1.9,4.6-3.5l1.5,1.4c-.8.8-1.6,1.5-2.5,2.1s-1.7,1.2-2.7,1.6-2,.8-3.1,1.1c-1.1.3-2.3.4-3.6.4Z"/>
  <path class="st0" d="M252.3,13.1h2.1l13.9,30h-2.4l-3.8-8.4h-17.6l-3.8,8.4h-2.3l13.9-30h0ZM261.2,32.8l-7.8-17.3-7.9,17.3h15.7Z"/>
  <path class="st0" d="M176.7,13.3h10.8c1.6,0,3.1.2,4.5.6,1.3.4,2.5,1,3.5,1.8,1,.8,1.7,1.7,2.3,2.9.5,1.1.8,2.4.8,3.9h0c0,1.6-.3,3-.9,4.2-.6,1.2-1.5,2.2-2.5,3-1.1.8-2.3,1.4-3.7,1.8-1.4.4-2.9.6-4.5.6h-8.1v11.1h-2.2V13.3h0ZM187.1,30c1.4,0,2.7-.2,3.8-.5,1.1-.3,2.1-.8,2.9-1.5.8-.6,1.4-1.4,1.9-2.3.5-.9.7-1.9.7-3h0c0-1.3-.2-2.3-.7-3.2-.4-.9-1.1-1.6-1.9-2.2-.8-.6-1.7-1.1-2.9-1.4-1.1-.3-2.3-.5-3.7-.5h-8.4v14.7h8.2Z"/>
  <path class="st0" d="M118.6,13.1h2.1l13.9,30h-2.4l-3.8-8.4h-17.6l-3.8,8.4h-2.3l13.9-30h0ZM127.5,32.8l-7.8-17.3-7.9,17.3h15.7Z"/>
  <path class="st0" d="M471.3,70.9c0,7.2-3.1,11.8-9.4,13.6l11.4,15.9h-9.4l-10.4-14.7h-9.7v14.7h-7.4v-43.7h16.3c6.7,0,11.4,1.1,14.3,3.4,2.9,2.3,4.3,5.9,4.3,10.8h0ZM452.9,79c4.2,0,7-.6,8.5-1.9,1.5-1.3,2.3-3.4,2.3-6.2s-.8-4.8-2.3-5.9c-1.5-1.1-4.3-1.6-8.3-1.6h-9.4v15.6h9.2Z"/>
  <path class="st0" d="M422.1,94.3c-4.4,4.3-9.9,6.5-16.4,6.5s-12-2.2-16.4-6.5c-4.4-4.3-6.6-9.7-6.6-16.1s2.2-11.8,6.6-16.1c4.4-4.3,9.9-6.5,16.4-6.5s12,2.2,16.4,6.5c4.4,4.3,6.6,9.7,6.6,16.1s-2.2,11.8-6.6,16.1h0ZM416.7,67c-3-3.1-6.6-4.6-11-4.6s-8,1.5-11,4.6c-3,3.1-4.5,6.8-4.5,11.2s1.5,8.1,4.5,11.2c3,3.1,6.6,4.6,11,4.6s8-1.5,11-4.6c3-3.1,4.5-6.8,4.5-11.2s-1.5-8.1-4.5-11.2Z"/>
  <polygon class="st0" points="367.2 63.4 367.2 100.4 359.8 100.4 359.8 63.4 346.5 63.4 346.5 56.7 380.4 56.7 380.4 63.4 367.2 63.4"/>
  <path class="st0" d="M315.6,90.4l-4.4,9.9h-7.9l19.3-43.7h7.9l19.3,43.7h-7.9l-4.4-9.9h-21.9ZM334.5,83.6l-7.9-18-7.9,18h15.9Z"/>
  <path class="st0" d="M286.6,100.4h-19.1v-43.7h17c3,0,5.5.4,7.7,1.1,2.1.7,3.7,1.7,4.8,2.9,2,2.3,3,4.8,3,7.6s-1.1,6-3.3,7.6c-.8.6-1.3.9-1.6,1.1s-.8.4-1.6.7c2.7.6,4.9,1.8,6.5,3.7,1.6,1.9,2.4,4.2,2.4,6.9s-1,5.7-3.1,8.1c-2.5,2.7-6.7,4.1-12.6,4.1h0ZM274.9,93.6h11.6c2.7,0,4.8-.4,6.2-1.3,1.4-.9,2.2-2.5,2.2-4.8,0-3.9-3.1-5.8-9.3-5.8h-10.6v11.9h0ZM274.9,74.8h9.4c5.3,0,8-1.8,8-5.4s-.6-3.6-1.9-4.5c-1.3-.9-3.3-1.4-6-1.4h-9.4v11.3h0Z"/>
  <path class="st0" d="M231,90.4c2,2.3,4.7,3.5,8.1,3.5s6.1-1.2,8.1-3.5c2-2.3,3-5.5,3-9.5v-24.2h7.4v24.5c0,6.3-1.7,11.1-5.2,14.5-3.5,3.4-7.9,5.1-13.3,5.1s-9.9-1.7-13.3-5.1c-3.5-3.4-5.2-8.2-5.2-14.5v-24.5h7.4v24.2c0,4,1,7.2,3,9.5Z"/>
  <path class="st0" d="M196.8,93.7c2.5,0,4.7-.4,6.6-1.3,1.8-.9,3.8-2.2,5.8-4.1l4.8,4.9c-4.6,5.1-10.2,7.7-16.9,7.7s-12.1-2.1-16.4-6.4-6.5-9.6-6.5-16.1,2.2-11.9,6.7-16.3c4.4-4.3,10-6.5,16.8-6.5s12.4,2.5,17,7.5l-4.7,5.1c-2.1-2-4.1-3.4-5.9-4.2s-4-1.2-6.5-1.2c-4.4,0-8.1,1.4-11.1,4.3-3,2.9-4.5,6.5-4.5,10.9s1.5,8.2,4.5,11.1c3,3,6.5,4.5,10.6,4.5Z"/>
  <polygon class="st0" points="159 56.7 166.4 56.7 166.4 100.4 158.4 100.4 133.7 68.5 133.7 100.4 126.3 100.4 126.3 56.7 133.7 56.7 159 89.3 159 56.7"/>
  <rect x="108.5" y="56.7" width="7.4" height="43.7"/>
  <path class="st0" d="M44.9,15.1c0-.3,0-.6,0-1,0,.1.3.4.6,1h-.6ZM33.2,49.3c-3.4,6.4-5.4,13-5.9,20-.4,6.2.2,11.5,2,16,.2.6.5,1.2.7,1.7-1.4-1-2.8-2.1-4.1-3.1-.1,0-.2-.1-.2-.1,1.7,2.7,3.8,5.2,6.4,7.4.4.3,1,.5,1.2,1,.5,1.4-.8,14.4,3.2,17.4,2.5,1.9,13.8-.5,17.3-1.6,18.1-5.9,32.2-22.6,30.1-46.8-2.3-26.5-19.7-53.4-37.2-59.9-4.7-1.8-5.7-1.6-10.6.5C19.1,9,2.4,35.2.2,61.1c-2.2,24.8,12.8,41.9,31.7,47.3.5.1,1,.3,1.5.4-.5-1-.9-2.1-1.2-3.4C12.4,99.5,1.3,82,3.1,61.4,4.8,41.6,18,12.6,37.3,4.4c4-1.7,4.4-2,8.5-.4,19.7,7.3,33.5,37.4,35.3,57.4,1.9,21.4-10.2,39.4-31.1,44.6-2.1.5-3.9.9-5.6,1-5.4.5-7.3,1.5-8.3-4.1-2.2-12.4-.5-34.9,4.9-43.6,0-.6,0,.5-.4,1.5-.2.4-.3.7-.4.8-3.2,7.4-5,29-3.5,33-.4-1.5.4-4.5,1.5-5.2l.7-.5c3.6-2.6,6-6.7,8.6-11.9,0,0-.1,0-.3,0-1.2,1-2.5,1.9-3.8,2.8,3-3.1,5.5-7.1,7.7-11.9,0,0-.2,0-.3,0-.9.8-1.8,1.5-2.7,2.2,3.7-6.7,7-14.5,7.3-23.4.2-5.8-.9-11.3-3.2-16.6-.8-1.8-1.9-4-3.3-6.5-2.1-3.8-3.2-5.8-3.4-6.1,0,8.2-1.3,14.8-4.3,19.8-.8,1.3-2.1,3.3-4.1,5.9-1.8,2.4-3.2,4.4-4,5.9Z"/>
</svg>